<?xml version="1.0" encoding="iso-8859-1"?>
<!-- Uploaded to: SVG Repo, www.svgrepo.com, Generator: SVG Repo Mixer Tools -->
<svg fill="#000000" height="800px" width="800px" version="1.1" id="Layer_1" xmlns="http://www.w3.org/2000/svg" xmlns:xlink="http://www.w3.org/1999/xlink" 
	 viewBox="0 0 512 512" xml:space="preserve">
<g>
	<g>
		<g>
			<path d="M256,0C114.618,0,0,114.618,0,256s114.618,256,256,256s256-114.618,256-256S397.382,0,256,0z M256,469.333
				c-117.818,0-213.333-95.515-213.333-213.333S138.182,42.667,256,42.667S469.333,138.182,469.333,256S373.818,469.333,256,469.333
				z"/>
			<path d="M376.925,135.572c-0.082-0.085-0.152-0.177-0.236-0.261s-0.176-0.154-0.261-0.236
				C345.563,104.336,303.002,85.333,256,85.333c-47.115,0-89.77,19.092-120.652,49.96c-0.009,0.009-0.019,0.016-0.028,0.026
				s-0.016,0.019-0.026,0.028C104.425,166.23,85.333,208.885,85.333,256s19.092,89.77,49.961,120.652
				c0.009,0.009,0.016,0.019,0.026,0.028s0.019,0.016,0.028,0.026c30.882,30.869,73.538,49.961,120.652,49.961
				c47.002,0,89.564-19.003,120.428-49.742c0.085-0.082,0.177-0.152,0.261-0.236s0.154-0.176,0.236-0.261
				c30.739-30.865,49.742-73.426,49.742-120.428C426.667,208.998,407.664,166.436,376.925,135.572z M360.335,330.165l-46.573-46.573
				c0.97-2.028,1.828-4.119,2.584-6.259h65.874C378.957,296.781,371.317,314.744,360.335,330.165z M129.78,277.333h65.874
				c0.756,2.14,1.614,4.231,2.584,6.259l-46.573,46.573C140.683,314.744,133.043,296.781,129.78,277.333z M151.665,181.835
				l46.573,46.573c-0.97,2.028-1.828,4.119-2.584,6.259H129.78C133.043,215.219,140.683,197.256,151.665,181.835z M271.085,271.085
				c-0.013,0.013-0.023,0.027-0.036,0.04c-3.856,3.837-9.172,6.209-15.049,6.209c-5.832,0-11.108-2.34-14.958-6.126
				c-0.042-0.042-0.076-0.089-0.119-0.131s-0.089-0.077-0.131-0.119c-3.786-3.849-6.126-9.126-6.126-14.958
				s2.34-11.108,6.126-14.958c0.042-0.042,0.089-0.076,0.131-0.119s0.077-0.089,0.119-0.131c3.849-3.786,9.126-6.126,14.958-6.126
				c5.876,0,11.192,2.372,15.049,6.209c0.013,0.013,0.023,0.027,0.036,0.04s0.027,0.023,0.04,0.036
				c3.837,3.856,6.209,9.172,6.209,15.049s-2.372,11.192-6.209,15.049C271.112,271.061,271.097,271.072,271.085,271.085z
				 M283.592,198.238c-2.028-0.97-4.119-1.828-6.259-2.584V129.78c19.447,3.263,37.41,10.903,52.832,21.885L283.592,198.238z
				 M234.667,195.654c-2.14,0.756-4.231,1.614-6.259,2.584l-46.573-46.573c15.422-10.982,33.385-18.622,52.832-21.885V195.654z
				 M228.408,313.762c2.028,0.97,4.119,1.828,6.259,2.584v65.874c-19.447-3.263-37.41-10.903-52.832-21.885L228.408,313.762z
				 M277.333,316.346c2.14-0.756,4.231-1.614,6.259-2.584l46.573,46.573c-15.422,10.982-33.385,18.622-52.832,21.885V316.346z
				 M316.346,234.667c-0.756-2.14-1.614-4.231-2.584-6.259l46.573-46.573c10.982,15.422,18.622,33.385,21.885,52.832H316.346z"/>
		</g>
	</g>
</g>
</svg>